<?xml version="1.0" standalone="no"?>
<!DOCTYPE svg PUBLIC "-//W3C//DTD SVG 20010904//EN"
 "http://www.w3.org/TR/2001/REC-SVG-20010904/DTD/svg10.dtd">
<svg version="1.0" xmlns="http://www.w3.org/2000/svg"
 width="612.000000pt" height="612.000000pt" viewBox="0 0 612.000000 612.000000"
 preserveAspectRatio="xMidYMid meet">
<metadata>
Created by potrace 1.11, written by Peter Selinger 2001-2013
</metadata>
<g transform="translate(0.000000,612.000000) scale(0.100000,-0.100000)"
fill="#000000" stroke="none">
<path d="M3162 5563 l3 -278 43 -3 c35 -3 42 0 43 15 1 10 2 136 2 280 l2 263
-48 0 -47 0 2 -277z"/>
<path d="M1528 5089 c-16 -16 -28 -32 -28 -35 0 -2 55 -59 123 -125 67 -66
156 -154 198 -196 l76 -75 32 32 31 32 -201 199 c-111 109 -202 199 -203 198
0 0 -13 -14 -28 -30z"/>
<path d="M4607 4918 l-198 -197 33 -30 33 -30 50 49 c28 27 117 115 198 195
l149 145 -24 29 c-13 16 -27 31 -33 33 -5 2 -99 -85 -208 -194z"/>
<path d="M3250 3220 l0 -1668 168 -4 c92 -1 247 -1 344 0 l177 4 -1 37 c0 21
3 58 7 82 3 24 9 58 11 74 35 221 232 663 422 949 30 44 46 70 64 106 7 14 15
27 18 30 13 12 92 181 114 245 57 164 61 190 61 440 0 204 -3 247 -25 330 -6
22 -12 47 -14 55 -12 46 -63 166 -105 245 -132 251 -349 461 -609 590 -99 48
-268 109 -281 100 -5 -3 -12 -1 -15 4 -3 5 -27 12 -53 17 -47 7 -55 9 -70 14
-5 1 -17 2 -29 1 -11 -1 -31 2 -45 8 -16 6 -31 5 -43 -1 -12 -7 -17 -7 -13 -1
4 7 -11 11 -38 11 l-45 1 0 -1669z"/>
<path d="M2957 4856 c-20 -15 -38 -63 -34 -88 2 -10 13 -29 25 -43 22 -25 22
-28 22 -419 0 -310 -3 -394 -12 -392 -7 2 -20 6 -28 9 -23 8 -154 49 -165 51
-5 1 -16 5 -22 9 -7 5 -13 6 -13 3 0 -3 -39 9 -87 26 -49 16 -96 31 -106 33
-9 2 -21 6 -25 9 -4 2 -12 2 -18 -2 -9 -6 -97 -150 -99 -162 -2 -6 -36 -67
-50 -86 -8 -11 -43 -14 -160 -14 -82 -1 -157 -1 -165 -1 -13 1 -15 27 -15 172
l1 171 49 53 c28 29 94 98 147 154 l97 101 78 -68 c127 -109 127 -109 129
-151 3 -49 7 -57 45 -77 84 -43 166 56 108 130 -11 14 -27 26 -35 26 -11 0
-14 27 -14 150 0 148 0 149 26 175 22 22 26 33 21 65 -11 80 -78 106 -147 57
-35 -24 -36 -96 -2 -123 21 -18 23 -26 23 -142 1 -68 -1 -125 -3 -128 -5 -4
-145 113 -196 163 -13 13 -29 23 -36 23 -7 0 -41 -30 -76 -67 -35 -38 -116
-122 -180 -188 l-116 -120 0 -225 0 -225 183 -5 184 -5 -35 -57 c-19 -32 -31
-58 -28 -58 4 0 2 -4 -4 -8 -6 -4 -18 -21 -27 -38 -11 -21 -26 -33 -46 -37
-72 -15 -95 -95 -42 -148 40 -39 94 -36 127 9 10 14 46 17 114 9 l35 -4 2
-101 c1 -56 -2 -104 -6 -106 -4 -3 -28 1 -53 9 -26 7 -49 11 -52 8 -3 -4 -6
-2 -6 3 0 5 -8 10 -17 11 -10 0 -55 12 -101 26 -45 14 -85 25 -87 26 -3 1 -6
1 -7 2 -2 0 -11 2 -20 5 -10 2 -24 6 -30 7 -7 2 -34 10 -60 17 -44 11 -48 15
-65 64 -9 28 -18 53 -18 56 -1 3 -4 12 -7 20 -38 101 -40 111 -28 126 7 8 14
30 17 48 8 76 -82 119 -146 69 -26 -20 -31 -31 -31 -66 0 -37 5 -45 35 -65 35
-24 42 -40 105 -222 13 -36 28 -70 34 -77 9 -9 113 -43 177 -58 9 -2 49 -13
90 -24 41 -12 99 -29 129 -37 30 -9 71 -21 90 -27 37 -11 39 -12 82 -20 15 -3
32 -8 37 -11 15 -10 17 13 16 166 0 94 3 149 10 151 5 2 44 2 85 1 122 -5 342
-13 378 -15 l32 -2 0 -244 c0 -207 -2 -244 -15 -249 -8 -4 -15 -11 -15 -18 0
-8 -32 -12 -111 -11 -88 0 -113 3 -122 16 -13 17 -45 33 -64 32 -35 -1 -44 -5
-68 -28 -32 -33 -33 -82 -4 -114 20 -21 21 -33 21 -207 l1 -184 121 1 c66 0
151 0 189 0 l67 -1 0 -369 c0 -286 -3 -370 -12 -373 -7 -2 -74 -4 -148 -3
l-135 1 -3 179 c-2 177 -2 179 22 204 45 48 43 100 -6 143 -27 23 -81 16 -110
-14 -21 -22 -30 -23 -113 -22 -49 1 -96 2 -103 3 -7 0 -31 40 -54 89 -23 48
-43 90 -45 94 -2 3 21 14 49 23 29 9 62 20 73 25 11 5 39 14 63 21 23 7 42 17
42 23 0 10 -23 81 -37 116 -3 8 -7 22 -8 30 -1 8 -23 82 -50 165 -26 82 -48
155 -49 162 -1 7 -5 16 -9 19 -4 4 -7 18 -7 30 0 13 -5 26 -10 29 -6 4 -55 9
-108 11 -53 3 -132 6 -175 8 -62 3 -83 8 -100 24 -28 26 -77 46 -77 31 0 -6
-4 -8 -9 -4 -15 9 -60 -38 -62 -65 -4 -53 2 -69 33 -88 38 -24 86 -21 110 8
16 19 21 20 155 10 76 -5 145 -10 155 -10 16 0 42 -53 31 -64 -4 -3 -2 -6 3
-6 5 0 10 -9 11 -20 1 -12 11 -46 23 -78 21 -53 24 -66 35 -117 4 -17 22 -66
50 -140 5 -11 5 -17 1 -13 -4 3 -43 -6 -85 -22 -51 -18 -83 -25 -92 -19 -8 5
-10 9 -5 9 5 0 3 6 -3 14 -8 10 -7 22 4 49 13 33 13 39 -3 66 -35 62 -103 71
-146 20 -39 -46 -25 -111 27 -130 26 -9 38 -25 62 -78 16 -36 57 -120 90 -186
l60 -120 122 2 c101 1 125 -1 140 -15 17 -16 18 -37 18 -237 l0 -220 235 -3
235 -2 0 442 -1 443 -192 3 -192 2 0 145 c0 97 4 145 11 145 6 0 17 6 24 14
10 9 44 14 116 14 89 1 105 -1 131 -20 33 -23 78 -32 78 -17 0 6 4 8 9 4 6 -3
21 7 35 22 33 35 34 80 3 113 -23 25 -23 26 -23 294 1 147 -2 273 -6 279 -9
15 -22 17 -253 23 -115 3 -235 7 -265 8 -30 2 -107 4 -172 4 l-116 2 139 242
c76 133 140 246 142 251 3 9 76 -8 137 -31 8 -3 17 -6 20 -7 16 -4 170 -52
255 -80 55 -18 105 -31 110 -29 6 3 10 162 9 451 l0 446 23 25 c51 55 11 142
-65 142 -20 0 -45 -7 -55 -14z m80 -62 c6 -16 -12 -34 -34 -34 -14 0 -18 32
-6 43 12 12 34 7 40 -9z m-447 -109 c0 -18 -5 -25 -19 -25 -11 0 -21 6 -24 13
-7 20 4 37 24 37 14 0 19 -7 19 -25z m20 -450 c17 -21 -1 -39 -29 -30 -17 5
-19 10 -11 26 13 23 23 24 40 4z m-833 -618 c11 -12 12 -36 2 -43 -5 -3 -17
-3 -28 1 -13 4 -17 12 -14 29 5 23 24 29 40 13z m409 -182 c9 -23 -15 -48 -32
-34 -17 14 -18 36 -1 42 21 9 27 7 33 -8z m-288 -522 c2 -14 -4 -22 -18 -26
-23 -6 -36 13 -27 37 8 21 41 13 45 -11z m762 -116 c0 -24 -34 -35 -46 -16
-10 17 2 34 25 36 16 1 21 -4 21 -20z m374 14 c10 -16 -5 -41 -25 -41 -14 0
-19 7 -19 25 0 18 5 25 19 25 11 0 22 -4 25 -9z m-880 -327 c3 -9 4 -20 0 -25
-14 -23 -57 2 -47 27 7 19 39 18 47 -2z m506 -428 c0 -20 -4 -24 -21 -21 -28
6 -33 11 -26 30 4 8 16 15 27 15 15 0 20 -7 20 -24z"/>
<path d="M984 3591 c-2 -2 -4 -23 -4 -46 l0 -42 278 2 c152 1 280 3 283 3 5 2
5 32 0 77 -1 10 -547 15 -557 6z"/>
<path d="M4837 3590 c-7 -3 -11 -12 -11 -20 1 -8 2 -27 3 -41 l1 -26 278 1
277 1 0 45 0 44 -268 1 c-147 0 -273 -2 -280 -5z"/>
<path d="M1590 2255 l-195 -195 33 -32 32 -33 200 200 200 200 -29 27 c-17 16
-34 28 -38 28 -5 0 -96 -88 -203 -195z"/>
<path d="M4538 2422 l-28 -27 200 -200 200 -200 32 33 33 32 -195 195 c-107
107 -199 195 -205 194 -5 0 -22 -12 -37 -27z"/>
<path d="M2412 1398 c-18 -18 -15 -93 4 -109 14 -11 156 -14 808 -14 451 -1
803 3 819 8 47 16 64 79 29 110 -17 16 -89 17 -833 17 -621 0 -818 -3 -827
-12z"/>
<path d="M2463 1222 c-53 -4 -65 -19 -61 -78 3 -43 6 -48 32 -55 16 -5 384 -8
817 -8 774 0 788 1 813 20 33 26 34 68 2 98 l-23 22 -769 2 c-423 1 -788 1
-811 -1z"/>
<path d="M2578 1011 c-38 -11 -50 -67 -20 -94 17 -15 79 -17 680 -17 649 0
662 0 682 20 11 11 20 29 20 39 0 18 -23 49 -38 52 -18 3 -1313 4 -1324 0z"/>
<path d="M2715 862 c-7 -7 24 -59 73 -123 71 -93 154 -151 274 -193 64 -22 93
-26 178 -25 69 0 118 6 153 18 29 10 59 20 67 22 8 2 17 6 20 9 3 3 22 14 43
25 20 11 56 35 79 54 72 58 167 188 154 210 -5 8 -1032 11 -1041 3z"/>
</g>
</svg>
